<svg width="599" height="78" viewBox="0 0 599 78" fill="none" xmlns="http://www.w3.org/2000/svg">
<path d="M25.4299 77.2124C21.3 77.2124 16.9488 76.77 12.3765 75.885C7.87783 75 3.89544 73.525 0.429283 71.4601L1.09302 54.6455H12.819L15.0314 68.5839C18.3501 69.6901 21.8531 70.2433 25.5405 70.2433C29.0066 70.2433 31.5509 69.3214 33.1734 67.4777C34.7959 65.5603 35.6071 63.3478 35.6071 60.8404C35.6071 58.1855 34.9802 56.1205 33.7265 54.6455C32.5465 53.1706 30.5554 51.7694 27.7529 50.4419L22.8856 48.1188C16.027 44.8739 10.7909 41.334 7.17723 37.4991C3.56357 33.6642 1.75675 28.6125 1.75675 22.3439C1.75675 15.5591 4.26418 10.2492 9.27905 6.41434C14.3677 2.57944 21.3737 0.661989 30.2972 0.661989C34.3534 0.661989 38.3358 1.14135 42.2444 2.10008C46.1531 3.0588 49.5086 4.42314 52.311 6.19309L51.3154 22.1227H39.8107L37.8195 8.95865C35.6071 8.07367 33.3209 7.63118 30.961 7.63118C28.2323 7.63118 25.8724 8.51616 23.8812 10.2861C21.9637 11.9823 21.005 14.121 21.005 16.7022C21.005 19.4309 21.7793 21.5696 23.328 23.1183C24.8768 24.667 27.1261 26.1788 30.076 27.6538L35.6071 30.3087C40.2532 32.5211 44.0144 34.7705 46.8905 37.0566C49.8405 39.2691 51.9792 41.7765 53.3066 44.5789C54.7078 47.3076 55.4084 50.5894 55.4084 54.4243C55.4084 58.7754 54.3022 62.6841 52.0898 66.1502C49.9511 69.5426 46.6693 72.2344 42.2444 74.2256C37.8195 76.2168 32.2147 77.2124 25.4299 77.2124ZM58.1965 23.782L58.4177 2.87443H125.123L125.233 23.782H114.946L113.065 9.40113H102.888C102.814 13.8998 102.74 18.4721 102.667 23.1183C102.667 27.7644 102.667 32.4474 102.667 37.1673V40.5965C102.667 45.0952 102.667 49.5938 102.667 54.0924C102.667 58.5911 102.703 63.0897 102.777 67.5883L111.627 68.4733V75H71.9136V68.4733L80.6527 67.5883C80.7265 63.1634 80.7633 58.7017 80.7633 54.2031C80.7633 49.7044 80.7633 45.2058 80.7633 40.7072V37.1673C80.7633 32.5949 80.7633 27.9856 80.7633 23.3395C80.7633 18.6934 80.6896 14.0473 80.5421 9.40113H70.4755L68.5949 23.782H58.1965ZM149.836 21.9014L141.429 48.1188H158.022L149.836 21.9014ZM119.747 75V68.4733L128.486 67.2565L150.611 2.87443H163.885L186.231 68.1414L192.205 68.8052V75H156.474V68.8052L164.107 67.6989L160.124 55.088H139.217L135.345 67.1458L142.978 68.4733V75H119.747ZM228.786 9.733H226.352C226.279 14.2316 226.205 18.6934 226.131 23.1183C226.131 27.5431 226.131 31.5993 226.131 35.2867H228.565C232.105 35.2867 234.796 34.6598 236.64 33.4061C238.558 32.1524 239.848 30.5668 240.512 28.6494C241.249 26.6582 241.618 24.5932 241.618 22.4545C241.618 18.1034 240.475 14.8954 238.189 12.8304C235.976 10.7655 232.842 9.733 228.786 9.733ZM196.927 9.40113V2.87443H234.981C243.757 2.87443 250.468 4.46002 255.114 7.63118C259.76 10.8023 262.083 15.1904 262.083 20.7952C262.083 23.1551 261.493 25.4782 260.313 27.7644C259.133 30.0506 257.105 32.1155 254.229 33.9592C251.353 35.7292 247.297 37.0198 242.061 37.831C247.002 38.421 250.8 39.5272 253.455 41.1497C256.11 42.7721 257.99 44.9108 259.096 47.5657C260.276 50.1469 261.088 53.2812 261.53 56.9686L262.858 67.5883L270.822 68.4733V75C268.684 75.4425 266.951 75.7744 265.623 75.9956C264.296 76.2906 263.005 76.475 261.751 76.5487C260.571 76.6962 259.023 76.77 257.105 76.77C251.943 76.77 247.776 75.8481 244.605 74.0044C241.508 72.087 239.701 68.6577 239.184 63.7166L238.078 52.8756C237.783 49.4094 236.972 46.7176 235.645 44.8002C234.391 42.8827 232.363 41.924 229.56 41.924H226.131C226.131 46.4226 226.131 50.8106 226.131 55.088C226.131 59.2917 226.168 63.4953 226.242 67.6989L234.317 68.4733V75H196.927V68.4733L204.56 67.6989C204.634 63.2741 204.67 58.8123 204.67 54.3137C204.67 49.7413 204.67 45.2058 204.67 40.7072V37.1673C204.67 32.6686 204.67 28.17 204.67 23.6714C204.67 19.1727 204.634 14.6741 204.56 10.1755L196.927 9.40113ZM378.216 9.40113V2.87443H400.893V9.40113L392.486 10.8392L372.574 75H359.299L345.14 27.5431L330.869 75H317.595L297.904 9.95425L292.041 9.40113V2.87443H328.104V9.40113L320.692 10.1755L331.201 52.1012L343.038 10.2861L336.179 9.40113V2.87443H370.583V9.40113L361.512 10.5074L372.906 52.9862L385.074 10.5074L378.216 9.40113ZM419.91 21.9014L411.502 48.1188H428.096L419.91 21.9014ZM389.821 75V68.4733L398.56 67.2565L420.684 2.87443H433.959L456.304 68.1414L462.278 68.8052V75H426.547V68.8052L434.18 67.6989L430.198 55.088H409.29L405.418 67.1458L413.051 68.4733V75H389.821ZM498.859 9.733H496.426C496.352 14.2316 496.278 18.6934 496.204 23.1183C496.204 27.5431 496.204 31.5993 496.204 35.2867H498.638C502.178 35.2867 504.87 34.6598 506.714 33.4061C508.631 32.1524 509.922 30.5668 510.585 28.6494C511.323 26.6582 511.691 24.5932 511.691 22.4545C511.691 18.1034 510.548 14.8954 508.262 12.8304C506.05 10.7655 502.915 9.733 498.859 9.733ZM467 9.40113V2.87443H505.054C513.83 2.87443 520.541 4.46002 525.187 7.63118C529.834 10.8023 532.157 15.1904 532.157 20.7952C532.157 23.1551 531.567 25.4782 530.387 27.7644C529.207 30.0506 527.179 32.1155 524.302 33.9592C521.426 35.7292 517.37 37.0198 512.134 37.831C517.075 38.421 520.873 39.5272 523.528 41.1497C526.183 42.7721 528.064 44.9108 529.17 47.5657C530.35 50.1469 531.161 53.2812 531.603 56.9686L532.931 67.5883L540.896 68.4733V75C538.757 75.4425 537.024 75.7744 535.696 75.9956C534.369 76.2906 533.078 76.475 531.825 76.5487C530.645 76.6962 529.096 76.77 527.179 76.77C522.016 76.77 517.849 75.8481 514.678 74.0044C511.581 72.087 509.774 68.6577 509.258 63.7166L508.152 52.8756C507.857 49.4094 507.045 46.7176 505.718 44.8002C504.464 42.8827 502.436 41.924 499.634 41.924H496.204C496.204 46.4226 496.204 50.8106 496.204 55.088C496.204 59.2917 496.241 63.4953 496.315 67.6989L504.39 68.4733V75H467V68.4733L474.633 67.6989C474.707 63.2741 474.744 58.8123 474.744 54.3137C474.744 49.7413 474.744 45.2058 474.744 40.7072V37.1673C474.744 32.6686 474.744 28.17 474.744 23.6714C474.744 19.1727 474.707 14.6741 474.633 10.1755L467 9.40113ZM568.817 77.2124C564.687 77.2124 560.336 76.77 555.764 75.885C551.265 75 547.283 73.525 543.817 71.4601L544.481 54.6455H556.206L558.419 68.5839C561.738 69.6901 565.241 70.2433 568.928 70.2433C572.394 70.2433 574.938 69.3214 576.561 67.4777C578.183 65.5603 578.995 63.3478 578.995 60.8404C578.995 58.1855 578.368 56.1205 577.114 54.6455C575.934 53.1706 573.943 51.7694 571.14 50.4419L566.273 48.1188C559.415 44.8739 554.178 41.334 550.565 37.4991C546.951 33.6642 545.144 28.6125 545.144 22.3439C545.144 15.5591 547.652 10.2492 552.667 6.41434C557.755 2.57944 564.761 0.661989 573.685 0.661989C577.741 0.661989 581.723 1.14135 585.632 2.10008C589.541 3.0588 592.896 4.42314 595.699 6.19309L594.703 22.1227H583.198L581.207 8.95865C578.995 8.07367 576.708 7.63118 574.348 7.63118C571.62 7.63118 569.26 8.51616 567.269 10.2861C565.351 11.9823 564.392 14.121 564.392 16.7022C564.392 19.4309 565.167 21.5696 566.716 23.1183C568.264 24.667 570.514 26.1788 573.464 27.6538L578.995 30.3087C583.641 32.5211 587.402 34.7705 590.278 37.0566C593.228 39.2691 595.367 41.7765 596.694 44.5789C598.095 47.3076 598.796 50.5894 598.796 54.4243C598.796 58.7754 597.69 62.6841 595.477 66.1502C593.339 69.5426 590.057 72.2344 585.632 74.2256C581.207 76.2168 575.602 77.2124 568.817 77.2124Z" fill="black"/>
</svg>
