<?xml version="1.0" encoding="UTF-8"?>
<!DOCTYPE svg PUBLIC "-//W3C//DTD SVG 1.0//EN" "http://www.w3.org/TR/2001/REC-SVG-20010904/DTD/svg10.dtd">
<!-- Creator: CorelDRAW X8 -->
<svg xmlns="http://www.w3.org/2000/svg" xml:space="preserve" width="18.8513mm" height="13.508mm" version="1.0" style="shape-rendering:geometricPrecision; text-rendering:geometricPrecision; image-rendering:optimizeQuality; fill-rule:evenodd; clip-rule:evenodd"
viewBox="0 0 2155 1544"
 xmlns:xlink="http://www.w3.org/1999/xlink">
 <defs>
  <style type="text/css">
   <![CDATA[
    .fil0 {fill:#FB992C}
   ]]>
  </style>
 </defs>
 <g id="Слой_x0020_1">
  <metadata id="CorelCorpID_0Corel-Layer"/>
  <g id="_1636403133824">
   <g id="_2829819185856">
    <path class="fil0" d="M144 0l1860 0c82,0 151,69 151,144l0 21c0,75 -69,144 -151,144l-1860 0c-75,0 -144,-69 -144,-144l0 -21c0,-75 69,-144 144,-144z"/>
    <path class="fil0" d="M144 618l1860 0c82,0 151,61 151,144l0 13c0,83 -69,151 -151,151l-1860 0c-75,0 -144,-68 -144,-151l0 -13c0,-83 69,-144 144,-144z"/>
    <path class="fil0" d="M144 1235l1860 0c82,0 151,62 151,144l0 14c0,82 -69,151 -151,151l-1860 0c-75,0 -144,-69 -144,-151l0 -14c0,-82 69,-144 144,-144z"/>
   </g>
  </g>
 </g>
</svg>
